<?xml version="1.0" standalone="no"?>
<!DOCTYPE svg PUBLIC "-//W3C//DTD SVG 20010904//EN"
 "http://www.w3.org/TR/2001/REC-SVG-20010904/DTD/svg10.dtd">
<svg version="1.0" xmlns="http://www.w3.org/2000/svg"
 width="431.000000pt" height="431.000000pt" viewBox="0 0 431.000000 431.000000"
 preserveAspectRatio="xMidYMid meet">
<metadata>
Created by potrace 1.14, written by Peter Selinger 2001-2017
</metadata>
<g transform="translate(0.000000,431.000000) scale(0.100000,-0.100000)"
fill="#000000" stroke="none">
<path d="M898 3651 c-40 -39 -48 -54 -48 -84 l0 -36 -47 14 -48 15 -53 -53
-52 -52 2 -300 3 -300 95 -25 95 -26 3 -101 3 -101 47 -12 c161 -42 152 -38
152 -77 0 -28 -3 -34 -16 -29 -9 3 -32 9 -52 12 -34 5 -41 2 -84 -45 l-48 -50
0 -500 0 -501 28 -6 c15 -3 41 -10 57 -14 17 -5 49 -14 72 -20 l42 -11 3 -101
3 -101 195 -52 195 -52 3 -101 c1 -56 4 -102 5 -102 1 0 112 -29 247 -65 135
-36 301 -81 370 -99 69 -18 271 -73 451 -121 l325 -87 52 52 c43 43 52 58 52
86 0 32 2 35 21 29 12 -4 79 -22 148 -41 l126 -33 52 51 c43 43 53 59 53 86 0
31 2 34 25 28 14 -3 36 -9 48 -12 19 -4 35 5 75 44 l52 50 0 501 0 501 -27 6
c-16 3 -46 12 -68 19 -22 7 -55 16 -72 20 -30 6 -33 10 -33 42 0 38 -6 37 71
18 22 -5 34 2 78 44 42 42 51 58 51 86 0 19 1 35 3 35 1 0 23 -7 48 -14 l46
-14 52 52 51 52 0 300 0 300 -97 25 -98 25 -3 102 -3 101 -42 11 c-23 6 -67
18 -97 27 -30 8 -62 17 -70 18 -8 2 -54 14 -101 26 l-86 23 -52 -49 c-44 -41
-51 -54 -51 -86 l0 -37 -47 14 -47 14 -53 -52 c-43 -42 -53 -59 -53 -85 0 -18
-3 -33 -6 -33 -5 0 -672 177 -1019 271 -38 10 -116 31 -172 46 l-103 27 0 101
0 101 -72 19 c-40 10 -79 20 -86 21 -40 7 -42 11 -42 113 l0 100 -42 11 c-24
6 -108 29 -188 51 -80 21 -152 39 -160 39 -8 -1 -36 -22 -62 -49z"/>
</g>
</svg>
